Coordinates
version=1
nRows=15
nColumns=63
inDegrees=yes

Units are S.I. units (second, meters, Newtons, ...)
If the header above contains a line with 'inDegrees', this indicates whether rotational values are in degrees (yes) or radians (no).

endheader
time	pelvis_tilt	pelvis_list	pelvis_rotation	pelvis_tx	pelvis_ty	pelvis_tz	hip_flexion_r	hip_adduction_r	hip_rotation_r	knee_angle_r	knee_angle_r_beta	ankle_angle_r	subtalar_angle_r	mtp_angle_r	hip_flexion_l	hip_adduction_l	hip_rotation_l	knee_angle_l	knee_angle_l_beta	ankle_angle_l	subtalar_angle_l	mtp_angle_l	L5_S1_Flex_Ext	L5_S1_Lat_Bending	L5_S1_axial_rotation	L4_L5_Flex_Ext	L4_L5_Lat_Bending	L4_L5_axial_rotation	L3_L4_Flex_Ext	L3_L4_Lat_Bending	L3_L4_axial_rotation	L2_L3_Flex_Ext	L2_L3_Lat_Bending	L2_L3_axial_rotation	L1_L2_Flex_Ext	L1_L2_Lat_Bending	L1_L2_axial_rotation	L1_T12_Flex_Ext	L1_T12_Lat_Bending	L1_T12_axial_rotation	Abs_r3	Abs_r2	Abs_r1	Abs_t1	Abs_t2	neck_flexion	neck_bending	neck_rotation	arm_flex_r	arm_add_r	arm_rot_r	elbow_flex_r	pro_sup_r	wrist_flex_r	wrist_dev_r	arm_flex_l	arm_add_l	arm_rot_l	elbow_flex_l	pro_sup_l	wrist_flex_l	wrist_dev_l
0.000000	-1.407984	-4.669463	84.313651	0.195121	0.887938	0.661313	4.362994	-2.835975	1.625662	9.425114	0.164499	27.014010	14.388819	0.000000	4.431224	2.192885	6.169542	10.796744	0.188439	21.238847	-12.293884	0.000000	0.047058	0.111508	1.130722	0.087391	0.148306	1.201393	0.077311	0.271121	1.201393	0.053783	0.271121	0.989382	0.043698	0.227388	0.918712	0.026889	0.172726	0.848042	0.336130	1.261404	6.288739	0.000000	0.000000	25.603465	-1.491723	-1.678341	26.827908	-10.754898	62.513250	55.539615	69.773552	5.849951	2.352057	26.453198	-7.588701	58.051354	47.021363	87.275513	7.496397	16.589261
0.016949	-1.298064	-4.601495	84.900687	0.194842	0.887601	0.660765	4.048083	-2.706109	1.522017	9.049231	0.157939	27.269558	14.208012	0.000000	4.674679	2.034012	6.675910	11.379298	0.198606	22.029335	-11.150696	0.000000	0.057037	0.124591	1.021718	0.105923	0.165706	1.085576	0.093706	0.302931	1.085576	0.065187	0.302931	0.894004	0.052964	0.254066	0.830146	0.032591	0.192992	0.766289	0.407408	1.409400	5.682491	0.000000	0.000000	24.896602	-1.104843	-1.264706	27.272253	-10.526278	63.543266	55.257368	73.788237	6.399851	1.254568	28.011330	-8.133501	64.026710	47.586324	87.779717	4.068271	15.620988
0.033898	-1.186586	-4.544156	85.395055	0.194631	0.887273	0.660311	3.783509	-2.574723	1.452771	8.749294	0.152704	27.456142	14.022005	0.000000	4.859737	1.872090	7.008095	11.828647	0.206449	22.751082	-10.091953	0.000000	0.066474	0.137580	0.930050	0.123449	0.182982	0.988179	0.109210	0.334512	0.988179	0.075973	0.334512	0.813794	0.061728	0.280554	0.755666	0.037983	0.213112	0.697538	0.474818	1.556335	5.172661	0.000000	0.000000	24.284550	-0.729815	-0.847083	27.661710	-10.341557	64.433221	55.028331	77.067069	6.791756	0.340545	29.312077	-8.600352	68.963797	48.070755	88.193448	1.300698	14.826261
0.050847	-1.074575	-4.496632	85.804087	0.194482	0.886954	0.659941	3.565462	-2.443094	1.413106	8.518573	0.148677	27.581805	13.834424	0.000000	4.991301	1.708837	7.185488	12.155707	0.212157	23.406252	-9.116360	0.000000	0.075311	0.150386	0.854357	0.139861	0.200014	0.907755	0.123729	0.365649	0.907755	0.086073	0.365649	0.747563	0.069934	0.306667	0.694165	0.043033	0.232948	0.640768	0.537942	1.701198	4.751679	0.000000	0.000000	23.761591	-0.370465	-0.433192	28.001641	-10.197138	65.195566	54.847876	79.662202	7.037411	-0.405767	30.374156	-8.994166	72.940459	48.480884	88.524176	-0.856306	14.198893
0.067797	-0.963055	-4.458112	86.135112	0.194386	0.886645	0.659649	3.390129	-2.312497	1.398206	8.350336	0.145741	27.654588	13.648895	0.000000	5.074272	1.545972	7.227478	12.371388	0.215921	23.997009	-8.222623	0.000000	0.083490	0.162920	0.793278	0.155050	0.216683	0.842858	0.137166	0.396123	0.842858	0.095421	0.396123	0.694118	0.077529	0.332225	0.644538	0.047706	0.252362	0.594958	0.596362	1.842978	4.411972	0.000000	0.000000	23.322012	-0.030623	-0.030752	28.297410	-10.089428	65.842754	54.711377	81.625784	7.148559	-1.000120	31.216285	-9.319853	76.034540	48.822938	88.779371	-2.452722	13.732698
0.084746	-0.853054	-4.427781	86.395458	0.194336	0.886349	0.659426	3.253701	-2.184209	1.403252	8.237855	0.143778	27.682534	13.469044	0.000000	5.113555	1.385213	7.153456	12.486606	0.217932	24.525516	-7.409449	0.000000	0.090951	0.175091	0.745450	0.168906	0.232871	0.792041	0.149424	0.425716	0.792041	0.103948	0.425716	0.652269	0.084458	0.357046	0.605678	0.051970	0.271216	0.559087	0.649657	1.980664	4.145969	0.000000	0.000000	22.960096	0.285885	0.352518	28.554383	-10.014832	66.387237	54.614208	83.009969	7.136946	-1.458270	31.857183	-9.582326	78.323882	49.103144	88.966506	-3.538535	13.421489
0.101695	-0.745596	-4.404827	86.592455	0.194325	0.886066	0.659265	3.152365	-2.059507	1.423426	8.174397	0.142670	27.673686	13.298496	0.000000	5.114050	1.228279	6.982813	12.512272	0.218380	24.993937	-6.675544	0.000000	0.097637	0.186811	0.709513	0.181321	0.248459	0.753857	0.160407	0.454213	0.753857	0.111589	0.454213	0.620824	0.090666	0.380945	0.576479	0.055790	0.289370	0.532134	0.697410	2.113245	3.946096	0.000000	0.000000	22.670128	0.575231	0.708899	28.777922	-9.969756	66.841469	54.551742	83.866907	7.014315	-1.795969	32.315569	-9.786495	79.886331	49.327729	89.093050	-4.163727	13.259080
0.118644	-0.641706	-4.388435	86.733432	0.194345	0.885797	0.659158	3.082310	-1.939666	1.453912	8.153234	0.142301	27.636085	13.140876	0.000000	5.080661	1.076888	6.734937	12.459300	0.217456	25.404435	-6.019614	0.000000	0.103487	0.197991	0.684104	0.192186	0.263327	0.726861	0.170019	0.481394	0.726861	0.118276	0.481394	0.598591	0.096098	0.403742	0.555835	0.059133	0.306687	0.513078	0.739200	2.239708	3.804783	0.000000	0.000000	22.446394	0.833588	1.030671	28.973393	-9.950604	67.217901	54.519351	84.248749	6.792412	-2.028974	32.610161	-9.937273	80.799730	49.502920	89.166475	-4.378281	13.239284
0.135593	-0.542411	-4.377795	86.825720	0.194390	0.885545	0.659097	3.039725	-1.825962	1.489891	8.167633	0.142552	27.577775	12.999812	0.000000	5.018291	0.932759	6.429220	12.338602	0.215349	25.759173	-5.440366	0.000000	0.108445	0.208540	0.667864	0.201393	0.277358	0.709605	0.178164	0.507044	0.709605	0.123941	0.507044	0.584381	0.100702	0.425254	0.542639	0.061965	0.323028	0.500898	0.774609	2.359044	3.714457	0.000000	0.000000	22.283177	1.057128	1.310115	29.146158	-9.953782	67.528987	54.512411	84.207647	6.482980	-2.173037	32.759678	-10.039570	81.141922	49.634944	89.194251	-4.232179	13.355916
0.152542	-0.448734	-4.372091	86.876646	0.194450	0.885309	0.659074	3.020800	-1.719673	1.526546	8.210865	0.143307	27.506796	12.878927	0.000000	4.931843	0.797609	6.085051	12.161093	0.212251	26.060315	-4.936504	0.000000	0.112450	0.218370	0.659429	0.208831	0.290431	0.700643	0.184744	0.530944	0.700643	0.128519	0.530944	0.577001	0.104421	0.445299	0.535786	0.064254	0.338254	0.494572	0.803218	2.470240	3.667547	0.000000	0.000000	22.174762	1.242023	1.539512	29.301583	-9.975696	67.787179	54.526294	83.795751	6.097763	-2.243913	32.782837	-10.098297	80.990751	49.730029	89.183850	-3.775405	13.602787
0.169492	-0.361703	-4.370511	86.893541	0.194520	0.885092	0.659081	3.021722	-1.622075	1.559060	8.276200	0.144447	27.431193	12.781849	0.000000	4.826218	0.673159	5.721820	11.937685	0.208352	26.310025	-4.506737	0.000000	0.115444	0.227390	0.657439	0.214392	0.302429	0.698529	0.189664	0.552877	0.698529	0.131941	0.552877	0.575259	0.107202	0.463694	0.534169	0.065965	0.352228	0.493080	0.824608	2.572285	3.656480	0.000000	0.000000	22.115434	1.384446	1.711142	29.445031	-10.012752	68.004929	54.556373	83.065214	5.648507	-2.257356	32.698358	-10.118367	80.424062	49.794402	89.142742	-3.057942	13.973713
0.186441	-0.284260	-4.374937	86.891260	0.194580	0.884884	0.659098	3.039221	-1.538098	1.552709	8.356446	0.145847	27.354716	12.726291	0.000000	4.716113	0.559132	5.320554	11.702684	0.204250	26.532232	-4.091687	0.000000	0.117440	0.236253	0.655292	0.218098	0.314216	0.696248	0.192942	0.574425	0.696248	0.134222	0.574425	0.573381	0.109055	0.481767	0.532425	0.067105	0.365956	0.491469	0.838862	2.672540	3.644540	0.000000	0.000000	22.080557	1.493101	1.862225	29.676232	-10.024321	68.402159	54.506494	81.913624	5.123646	-2.268867	32.647370	-10.118354	79.978280	49.864396	89.134436	-2.277061	14.511184
0.203390	-0.218615	-4.377251	86.867110	0.194652	0.884715	0.659144	3.065174	-1.467431	1.543833	8.435083	0.147220	27.329918	12.719023	0.000000	4.592049	0.466388	4.997948	11.429693	0.199486	26.690062	-3.798466	0.000000	0.117627	0.242772	0.663663	0.218445	0.322887	0.705142	0.193249	0.590276	0.705142	0.134436	0.590276	0.580705	0.109228	0.495061	0.539227	0.067212	0.376054	0.497748	0.840196	2.746286	3.691097	0.000000	0.000000	22.093099	1.504192	1.827107	29.868741	-10.063304	68.710006	54.479642	80.644599	4.482106	-2.315334	32.550867	-10.092820	79.311945	49.907845	89.226346	-1.226931	15.257047
0.220339	-0.162197	-4.375448	86.845538	0.194681	0.884589	0.659210	3.093209	-1.410349	1.503754	8.511576	0.148555	27.351800	12.758476	0.000000	4.461985	0.393821	4.760904	11.140684	0.194442	26.794233	-3.588663	0.000000	0.115238	0.248018	0.674497	0.214009	0.329864	0.716653	0.189325	0.603032	0.716653	0.131706	0.603032	0.590185	0.107010	0.505759	0.548029	0.065847	0.384180	0.505873	0.823134	2.805634	3.751348	0.000000	0.000000	22.150218	1.415609	1.650651	30.042017	-10.129052	68.980218	54.491246	79.091101	3.775766	-2.336637	32.375667	-10.049474	78.362038	49.930872	89.664630	0.016074	16.082487
0.237288	-0.112263	-4.379320	86.818241	0.194687	0.884486	0.659262	3.128948	-1.362819	1.435717	8.577518	0.149706	27.403177	12.851088	0.000000	4.337535	0.334375	4.591208	10.847804	0.189330	26.856135	-3.444879	0.000000	0.112132	0.252518	0.684121	0.208240	0.335850	0.726879	0.184222	0.613973	0.726879	0.128156	0.613973	0.598606	0.104126	0.514936	0.555849	0.064072	0.391151	0.513091	0.800948	2.856539	3.804877	0.000000	0.000000	22.244712	1.264597	1.379914	30.196587	-10.196814	69.203275	54.530308	77.508620	3.088296	-2.358617	32.033379	-9.975530	76.911369	49.945308	90.467158	1.441121	16.987597
